<svg width="64" height="64" viewBox="0 0 64 64" fill="none" xmlns="http://www.w3.org/2000/svg">
<rect x="10" y="10" width="44" height="44" fill="#0666B0"/>
<rect x="13" y="13" width="38" height="38" fill="white"/>
<path d="M32.6991 38L28.1271 30.062L32.2311 25.238H29.4051L24.3111 31.124V25.238H21.9891V38H24.3111V34.544L26.5071 31.97L29.9631 38H32.6991ZM42.7563 33.302C42.7563 31.538 42.1983 30.134 41.0823 29.216C40.5063 28.748 39.7503 28.424 38.8143 28.424C37.7883 28.424 36.7443 28.802 36.1863 29.666L36.0423 28.64H34.0983V41.582H36.3483V37.316C36.7803 37.838 37.6803 38.234 38.7963 38.234C39.7503 38.234 40.5063 37.946 41.0823 37.478C42.1983 36.56 42.7563 35.138 42.7563 33.302ZM40.4703 33.338C40.4703 34.148 40.3443 34.994 39.8763 35.606C39.5523 36.02 39.0663 36.344 38.3643 36.344C36.6003 36.344 36.2403 34.688 36.2403 33.338C36.2403 31.988 36.6003 30.314 38.3643 30.314C39.0663 30.314 39.5523 30.638 39.8763 31.052C40.3443 31.664 40.4703 32.528 40.4703 33.338Z" fill="black"/>
</svg>
