<svg width="24" height="24" viewBox="0 0 24 24" fill="none" xmlns="http://www.w3.org/2000/svg">
<path d="M11.9786 0C15.3353 0 18.1778 1.16438 20.5069 3.49313C22.8349 5.80763 24 8.643 24 12C24 15.3578 22.8566 18.1714 20.5706 20.4427C18.1567 22.8142 15.2921 24 11.9786 24C8.73525 24 5.92125 22.8214 3.53587 20.4641C1.179 18.1072 0 15.2865 0 12.0004C0 8.72925 1.179 5.8935 3.53587 3.4935C5.86425 1.16438 8.67863 0 11.9786 0ZM12.0214 2.1645C9.29287 2.1645 6.98588 3.129 5.1 5.05763C3.1425 7.04363 2.16412 9.35775 2.16412 12C2.16412 14.6719 3.13538 16.9714 5.07788 18.9C7.02075 20.8433 9.33488 21.8141 12.0206 21.8141C14.6918 21.8141 17.0209 20.8357 19.0065 18.8786C20.8924 17.0501 21.8351 14.7574 21.8351 12C21.8351 9.25762 20.8777 6.94313 18.9641 5.05763C17.064 3.12825 14.7495 2.1645 12.0214 2.1645ZM19.8428 12.2145L20.0786 12.3218V15.7073L19.8641 15.8137L16.95 17.0569L16.8214 17.1L16.6714 17.0573L10.3928 14.4645L10.1782 14.3786L7.07138 15.6645L4.00725 14.3355V11.25L6.87863 10.0496L6.85725 10.0283V6.64238L10.1145 5.20688L17.4645 8.24963V11.2282L19.8428 12.2145ZM16.4355 16.1565V14.0359H16.4141V13.95L10.9069 11.7V13.8862L16.4141 16.158V16.1362L16.4355 16.1565ZM16.7996 13.3714L18.729 12.5786L16.95 11.8286L15.0641 12.6214L16.7996 13.3714ZM19.3286 15.2145V13.1362L17.1855 14.0363V16.1362L19.3286 15.2145Z" fill="black"/>
</svg>
