<svg width="24" height="24" viewBox="0 0 24 24" fill="none" xmlns="http://www.w3.org/2000/svg">
<path d="M11.9786 0C15.3491 0 18.1961 1.161 20.5174 3.48225C22.839 5.8035 24 8.64262 24 12C24 15.3578 22.8566 18.1639 20.5706 20.421C18.1567 22.8071 15.2921 24 11.9786 24C8.721 24 5.91037 22.821 3.54637 20.4637C1.18162 18.1065 0 15.2858 0 12C0 8.71463 1.179 5.87175 3.53587 3.47175C5.85037 1.15687 8.664 0 11.9786 0ZM12.0109 2.1645C9.2895 2.1645 6.9855 3.12187 5.10037 5.03587C3.14288 7.02187 2.1645 9.34312 2.1645 12.0004C2.1645 14.6576 3.13575 16.9579 5.07862 18.8996C7.0215 20.8429 9.33562 21.8137 12.0214 21.8137C14.7071 21.8137 17.0355 20.8361 19.0073 18.8782C20.8931 17.0494 21.8359 14.7566 21.8359 11.9996C21.8359 9.25688 20.8785 6.93563 18.9649 5.0355C17.0501 3.1215 14.7319 2.1645 12.0109 2.1645ZM12.1927 4.7355C12.3356 4.72125 12.4609 4.76063 12.5685 4.85325C12.6754 4.94663 12.7354 5.06438 12.75 5.20688V5.29275L13.0714 10.4782L13.3073 7.60687C13.3073 7.464 13.3571 7.3425 13.4565 7.24275C13.5559 7.143 13.6785 7.09238 13.8206 7.09238C13.9635 7.09238 14.085 7.14262 14.1855 7.24275C14.2852 7.34287 14.3355 7.464 14.3355 7.60687V7.69238L14.613 11.5496L14.892 8.44275C14.9059 8.3145 14.9602 8.20687 15.0532 8.12137C15.1455 8.0355 15.2561 7.99313 15.3851 7.99313C15.5141 7.99313 15.6281 8.03287 15.7279 8.11087C15.8284 8.18962 15.8854 8.29313 15.9 8.42175L16.4573 13.0931L16.7145 12.4717C16.8004 12.2572 16.9642 12.15 17.2065 12.15H20.0137V13.179H17.5493L16.671 15.3218C16.5705 15.5786 16.3845 15.6863 16.1138 15.6428C15.9855 15.6285 15.8816 15.5782 15.8032 15.4927C15.7249 15.4072 15.678 15.3 15.6641 15.1714L15.4714 13.6286L15.1072 18.1069C15.0926 18.2347 15.039 18.3424 14.946 18.4279C14.853 18.5134 14.7424 18.5565 14.6134 18.5565C14.4851 18.5565 14.3711 18.5137 14.2706 18.4279C14.1709 18.342 14.1139 18.2355 14.0992 18.1069V18.0424L13.7996 14.3351L13.5424 17.8282C13.5131 17.9565 13.4524 18.0641 13.3601 18.1496C13.2671 18.2355 13.1565 18.2779 13.0275 18.2779C12.8993 18.2779 12.7845 18.2355 12.6848 18.1496C12.585 18.0637 12.5272 17.9565 12.5134 17.8282V17.7637L12.2344 13.5851L11.9561 18.171V18.2355C11.9561 18.3787 11.9055 18.5029 11.8061 18.6101C11.7068 18.7174 11.5849 18.7714 11.442 18.7714C11.2984 18.7714 11.1776 18.7174 11.0779 18.6101C10.9774 18.5029 10.9271 18.3787 10.9271 18.2355V18.1924L10.6489 13.95L10.3916 18.0427V18.1069C10.3627 18.2359 10.3024 18.3431 10.2098 18.4282C10.1168 18.5141 10.0061 18.5569 9.87787 18.5569C9.74962 18.5569 9.63488 18.5141 9.53513 18.4282C9.435 18.3427 9.378 18.2355 9.36337 18.1069V18.0427H9.34238V17.979L9.04238 13.6935L8.8065 16.4359C8.79225 16.5649 8.73488 16.6721 8.63513 16.7573C8.535 16.8431 8.421 16.8862 8.29238 16.8862C8.16375 16.8862 8.05275 16.8469 7.95975 16.7681C7.86675 16.6901 7.806 16.5863 7.7775 16.4576L7.24163 12.7721L7.1775 12.9C7.092 13.086 6.9345 13.179 6.70575 13.179H4.22025V12.15H6.38475L7.04888 10.8C7.149 10.5716 7.32338 10.4749 7.57388 10.5105C7.82363 10.5461 7.97025 10.6856 8.013 10.9283L8.163 11.9138L8.56988 7.17825C8.56988 7.03538 8.61975 6.91387 8.71988 6.81412C8.82 6.71437 8.94113 6.66375 9.084 6.66375C9.22688 6.66375 9.348 6.714 9.44812 6.81412C9.54825 6.91425 9.59775 7.03538 9.59775 7.17825V7.26375L9.83362 10.6069L10.155 6.12863V6.0645C10.1689 5.93588 10.2225 5.82862 10.3155 5.74312C10.4081 5.65762 10.5188 5.61487 10.6478 5.61487C10.7768 5.61487 10.8907 5.65762 10.9905 5.74312C11.091 5.829 11.1472 5.93588 11.1619 6.0645V6.12863L11.4191 10.0286L11.7195 5.29312V5.20725C11.7195 5.079 11.7656 4.97138 11.8586 4.88588C11.9531 4.8 12.0637 4.75013 12.1927 4.7355Z" fill="black"/>
</svg>
