<svg width="24" height="24" viewBox="0 0 24 24" fill="none" xmlns="http://www.w3.org/2000/svg">
<path d="M11.9786 0C15.3353 0 18.1778 1.16438 20.5069 3.49313C22.8349 5.80763 24 8.643 24 12C24 15.3578 22.8566 18.1714 20.5706 20.4427C18.1567 22.8142 15.2921 24 11.9786 24C8.73525 24 5.92125 22.8214 3.53587 20.4641C1.179 18.1072 0 15.2865 0 12.0004C0 8.72925 1.179 5.8935 3.53587 3.4935C5.86425 1.16438 8.67863 0 11.9786 0ZM12.0214 2.1645C9.29287 2.1645 6.98588 3.129 5.1 5.05763C3.1425 7.04363 2.16412 9.35775 2.16412 12C2.16412 14.6719 3.13538 16.9714 5.07788 18.9C7.02075 20.8433 9.33488 21.8141 12.0206 21.8141C14.6918 21.8141 17.0209 20.8357 19.0065 18.8786C20.8924 17.0501 21.8351 14.7574 21.8351 12C21.8351 9.25762 20.8777 6.94313 18.9641 5.05763C17.064 3.12825 14.7495 2.1645 12.0214 2.1645ZM16.9072 8.57138C17.0925 8.57138 17.25 8.6355 17.3782 8.76375C17.5072 8.89238 17.5718 9.04988 17.5718 9.2355V18.0637C17.5718 18.2494 17.5072 18.4065 17.3782 18.5347C17.25 18.6634 17.0925 18.7283 16.9072 18.7283H10.3714C10.1854 18.7283 10.0286 18.6641 9.89963 18.5347C9.77063 18.4061 9.70688 18.2494 9.70688 18.0637V15.4489H7.09275C6.90637 15.4489 6.74963 15.3851 6.621 15.2565C6.49275 15.1282 6.42825 14.9711 6.42825 14.7847V5.95725C6.42825 5.7855 6.48488 5.63925 6.6 5.51813C6.71363 5.397 6.85688 5.322 7.02825 5.29312H7.09238H13.6279C13.8131 5.29312 13.9706 5.35725 14.0996 5.48587C14.2279 5.61412 14.2924 5.772 14.2924 5.95763V8.57212H16.9072V8.57138ZM7.7355 14.1428H9.70688V9.2355C9.70688 9.06413 9.7635 8.91788 9.87863 8.79638C9.99263 8.67563 10.1288 8.60025 10.2855 8.57138H10.371H12.9855V6.62137H7.7355V14.1428ZM16.2641 9.87825H11.0141V17.4H16.2641V9.87825Z" fill="black"/>
</svg>
