<svg width="24" height="24" viewBox="0 0 24 24" fill="none" xmlns="http://www.w3.org/2000/svg">
<path d="M12 5.09287C8.03813 5.09287 7.04175 8.83124 7.04175 12.0004C7.04175 15.1699 8.03775 18.9079 12 18.9079C15.9615 18.9079 16.9579 15.1699 16.9579 12.0004C16.9579 8.83124 15.9615 5.09287 12 5.09287ZM12 7.69762C12.1609 7.69762 12.3075 7.72237 12.4455 7.75649C12.7309 8.00249 12.8704 8.34187 12.5966 8.81512L9.95813 13.6639C9.87713 13.0504 9.8655 12.4489 9.8655 12C9.8655 10.6042 9.96225 7.69762 12 7.69762ZM13.9747 9.93299C14.1146 10.677 14.1345 11.454 14.1345 12.0004C14.1345 13.3965 14.0377 16.3035 12.0007 16.3035C11.8402 16.3035 11.6925 16.2866 11.5552 16.2525C11.529 16.2446 11.505 16.2364 11.4795 16.2274C11.4375 16.2154 11.3932 16.2019 11.3535 16.1861C10.8997 15.993 10.614 15.6439 11.0258 15.0262L13.9747 9.93299Z" fill="black"/>
<path d="M11.9749 0.000366211C8.646 0.000366211 5.84025 1.15912 3.55463 3.48787C2.397 4.64549 1.5135 5.96549 0.898875 7.43737C0.298875 8.89499 0 10.4145 0 12.0004C0 13.6009 0.298875 15.1204 0.898875 16.5634C1.49887 18.0071 2.36925 19.3054 3.51225 20.4619C4.66913 21.6052 5.96812 22.4865 7.4115 23.1007C8.86875 23.7015 10.3886 24 11.9749 24C13.5608 24 15.1024 23.6902 16.5885 23.0756C18.0742 22.461 19.3995 21.5779 20.5714 20.4202C21.7005 19.3204 22.5547 18.0589 23.1259 16.6305C23.7112 15.1879 24 13.644 24 12.0004C24 10.3717 23.7112 8.83012 23.1262 7.38674C22.5405 5.92987 21.6832 4.64174 20.5549 3.51299C18.1969 1.16999 15.3319 0.000366211 11.9749 0.000366211ZM12.0251 2.15999C14.7394 2.15999 17.0546 3.12224 18.9829 5.05087C19.9117 5.97974 20.6235 7.04212 21.1091 8.22749C21.5951 9.41324 21.84 10.6717 21.84 12.0004C21.84 14.7581 20.8965 17.0456 19.0253 18.8741C18.0533 19.8176 16.962 20.5417 15.7477 21.042C14.5477 21.5422 13.311 21.7897 12.0251 21.7897C10.7246 21.7897 9.47963 21.5449 8.29425 21.0592C7.10812 20.559 6.04388 19.845 5.10075 18.9157C4.15763 17.973 3.43013 16.9084 2.916 15.7222C2.41613 14.5226 2.15962 13.2855 2.15962 11.9996C2.15962 10.6995 2.41613 9.45449 2.916 8.26874C3.43013 7.06874 4.158 5.99099 5.10075 5.03324C6.972 3.11962 9.282 2.15999 12.0251 2.15999Z" fill="black"/>
</svg>
